<?xml version="1.0" encoding="utf-8"?>
<!-- Generator: Adobe Illustrator 19.2.1, SVG Export Plug-In . SVG Version: 6.00 Build 0)  -->
<svg version="1.1" id="Camada_1" xmlns="http://www.w3.org/2000/svg" xmlns:xlink="http://www.w3.org/1999/xlink" x="0px" y="0px"
	 viewBox="0 0 569 140" style="enable-background:new 0 0 569 140;" xml:space="preserve">
<style type="text/css">
	.st0{fill:#FFFFFF;}
</style>
<g>
	<path class="st0" d="M69.1,99c0.8,12.5-4.6,17.4-22.3,18.2c-4.8,0.3-9.9-1-9.9-6.8c0-7.7,5.2-23.8,5.4-35.8C42.4,71,42,70,38.6,70
		c-4,0-6.1-1-6.1-5.7c0-7,10.4-9,15.3-11.5c3.5-1.8,7.7-3.3,11.8-3.3c7.9,0,4.4,12.2,8.5,12.2c3.7,0,3.3-12.4,15.3-12.4
		c8.4,0,14,7.2,14,15.3c0,7.9-3.9,15.5-12.6,15.5c-4.6,0-6.4-1.8-8.6-5.5c-0.4-0.8-1.5-3.1-2.6-3.1c-1.8,0-2.6,5.4-2.7,6.6L69.1,99z
		"/>
	<path class="st0" d="M95.7,92.3c0-24.6,19.3-42.7,43.8-42.7c16.1,0,29.4,8.6,29.4,25.5c0,24.6-19.3,42.7-43.8,42.7
		C109,117.8,95.7,109.1,95.7,92.3z M127.6,75.4c-1.4,7-2.6,15.7-2.6,22.8c0,3,0.8,5.9,4.1,5.9c5.4,0,6.4-7.7,7.2-11.6
		c1.3-6.6,3.1-16.5,3.1-23c0-3-0.6-6.3-4.2-6.3C129.8,63.2,128.5,71.4,127.6,75.4z"/>
	<path class="st0" d="M169.2,92.3c0-24.6,19.3-42.7,43.8-42.7c16.1,0,29.4,8.6,29.4,25.5c0,24.6-19.3,42.7-43.8,42.7
		C182.5,117.8,169.2,109.1,169.2,92.3z M201.2,75.4c-1.4,7-2.6,15.7-2.6,22.8c0,3,0.8,5.9,4.1,5.9c5.4,0,6.4-7.7,7.2-11.6
		c1.3-6.6,3.1-16.5,3.1-23c0-3-0.6-6.3-4.2-6.3C203.4,63.2,202.1,71.4,201.2,75.4z"/>
	<path class="st0" d="M322.7,59.3c0.3,0.9,0.3,2.4,1.4,2.4c2.1,0,11.1-11.6,24.9-11.6c7.9,0,12.9,5.2,12.9,12.9
		c0,7.3-4.2,25.6-4.2,31.4c0,6.6,6.8,1.2,6.8,6.8c0,9.5-19.3,15.3-26.3,15.7c-5.9,0.3-8.9-3.6-9.5-9.1c0-11.2,4.2-22.1,4.2-32.4
		c0-2.3-0.6-4.1-3.2-4.1c-9.9,0-10,18.3-10.7,24.3c-0.8,7-1.7,13.4-3.7,15.7c-4,4.5-13.5,5.7-19.2,5.7c-5.4,0-7.7-1.7-7.7-7.3
		c0-10.2,4.9-22.5,4.9-33.6c0-2.7-0.3-4.8-3.5-4.8c-9,0-10.2,21.9-10.6,27.7c-1.2,12.6-0.3,16.6-21.9,18.2c-5,0.4-8.5-1.3-8.5-7
		c0-4.8,5.1-25.5,5.1-36.3c0-2.4-0.4-4.2-3.1-4.2c-2.8,0-6.2,0-6.2-4c0-4.8,6.4-7.6,10-9.4c6.1-3,13-6.1,20-6.1c4.6,0,6.6,3.1,7,7.3
		c0,1.2,0.3,4.2,1.9,4.2c3.1,0,13.5-11.6,25.6-11.6C315.2,50.2,320.9,53.3,322.7,59.3z"/>
	<path class="st0" d="M374.4,79.5c0.5-3,1.2-5.4,1.2-7.1c0-1.7-0.6-2.6-2.8-2.6c-1.9,0-5,0.1-5-4.5c0-5.5,5.9-8,10.2-9.8
		c6.1-2.6,15.8-5.4,22.4-5.4c4,0,5.8,2.1,5.8,5.9c0,5.5-1.9,16.5-2.2,18.3c-0.3,1.4-2.6,16.2-3.2,21.2c-0.3,2.4,1.4,2.4,3.5,2.4
		c2.4,0,4.2,0.1,4.2,3.2c0,9.8-20.3,15.7-27.7,15.7c-4.9,0-10.4-3-10.4-8.4c0-2.4,0.4-4.8,0.8-7.2L374.4,79.5z M373.7,37.8
		c0-10.3,18.4-15.6,26.7-15.6c4.6,0,10.8,1.8,10.7,7.3c-0.1,9.4-18.2,15.8-25.9,15.3C380.8,44.6,373.7,43.5,373.7,37.8z"/>
	<path class="st0" d="M479.5,64.8c0,15.6-17.4,27.7-31.9,27.7c-1.8,0-5,0-5,2.7c0,3.7,4.6,5.8,7.9,5.8c9.3,0,16.4-7.3,20.5-7.3
		c2.7,0,5.2,2.8,5.2,5.4c0,6.8-8.6,11.1-13.9,13.5c-7.2,3.2-14.2,5.2-22.3,5.2c-15.7,0-29.4-6.8-28.7-24.1
		c1.2-26.8,26.1-44.2,49.6-44.2C470.8,49.5,479.5,53.5,479.5,64.8z M442.3,78.4c0,1.5,0.5,3.6,2.3,3.6c3.6,0,9.9-9.5,9.5-15.7
		c-0.1-1.7-0.9-4-3-4C445.9,62.3,442.3,74.2,442.3,78.4z"/>
	<path class="st0" d="M529.7,69.7c-5.2,0-5.2-7.5-10-7.5c-2.2,0-4,1.5-4,3.7c0,8.4,18.4,14.5,18.4,30c0,16-18.8,21.8-31.8,21.8
		c-8.2,0-23.4-2.3-23.4-13.1c0-3.9,2.4-9.1,6.8-9.1c5.4,0,4.5,8.6,10.9,8.6c2.6,0,5.5-1.4,5.5-4.2c0-6.8-16.1-13.5-16.1-27.9
		c0-15.5,17.6-22.4,30.9-22.4c6.7,0,19.6,2.2,19.6,10.8C536.5,64.2,534.2,69.7,529.7,69.7z"/>
</g>
</svg>
